<svg xmlns="http://www.w3.org/2000/svg" viewBox="0 0 540 200" width="100%" height="100%">
  <defs>
    <style>
      @import url('https://fonts.googleapis.com/css2?family=Plus+Jakarta+Sans:wght@500;700&amp;display=swap');
      .logo-text-smart {
        font-family: 'Plus Jakarta Sans', 'Inter', -apple-system, sans-serif;
        font-size: 52px;
        font-weight: 500;
        fill: #FFFFFF;
      }
      .logo-text-audit {
        font-family: 'Plus Jakarta Sans', 'Inter', -apple-system, sans-serif;
        font-size: 52px;
        font-weight: 700;
        fill: #0052FF;
      }
    </style>
  </defs>

  <rect width="100%" height="100%" rx="16" fill="#0A182E" />

  <g transform="translate(10, 0)">
    <g fill="none" stroke="#FFFFFF" stroke-width="3.5" stroke-linecap="round" stroke-linejoin="round">
      <path d="M 100,62 L 100,71 A 6,6 0 0 1 94,77 L 56,77 A 6,6 0 0 0 50,83 L 50,92" />
      <path d="M 100,62 L 100,71 A 6,6 0 0 0 106,77 L 144,77 A 6,6 0 0 1 150,83 L 150,92" />
      <path d="M 100,62 L 100,92" />
      
      <path d="M 100,118 L 100,127 A 6,6 0 0 1 94,133 L 76,133 A 6,6 0 0 0 70,139 L 70,148" />
      <path d="M 100,118 L 100,127 A 6,6 0 0 0 106,133 L 124,133 A 6,6 0 0 1 130,139 L 130,148" />
      <path d="M 100,118 L 100,148" />
    </g>

    <rect x="85" y="32" width="30" height="30" rx="8" fill="#0052FF" />
    <rect x="37" y="92" width="26" height="26" rx="6" fill="#0052FF" />
    <rect x="87" y="92" width="26" height="26" rx="6" fill="#FFFFFF" />
    <rect x="137" y="92" width="26" height="26" rx="6" fill="#0052FF" />
    <rect x="59" y="148" width="22" height="20" rx="4" fill="#FFFFFF" />
    <rect x="89" y="148" width="22" height="20" rx="4" fill="#FFFFFF" />
    <rect x="119" y="148" width="22" height="20" rx="4" fill="#FFFFFF" />
  </g>

  <text x="195" y="116">
    <tspan class="logo-text-smart" letter-spacing="-1">Smart </tspan>
    <tspan class="logo-text-audit" letter-spacing="-1">Audit</tspan>
  </text>
</svg>