<svg xmlns="http://www.w3.org/2000/svg" viewBox="0 0 200 200" width="100%" height="100%">
  <!-- Connection Lines -->
  <g fill="none" stroke="#0E1726" stroke-width="3.5" stroke-linecap="round" stroke-linejoin="round">
    <!-- Top to Middle/Sides -->
    <path d="M 100,62 L 100,71 A 6,6 0 0 1 94,77 L 56,77 A 6,6 0 0 0 50,83 L 50,92" />
    <path d="M 100,62 L 100,71 A 6,6 0 0 0 106,77 L 144,77 A 6,6 0 0 1 150,83 L 150,92" />
    <path d="M 100,62 L 100,92" />
    
    <!-- Middle to Bottom Tier -->
    <path d="M 100,118 L 100,127 A 6,6 0 0 1 94,133 L 76,133 A 6,6 0 0 0 70,139 L 70,148" />
    <path d="M 100,118 L 100,127 A 6,6 0 0 0 106,133 L 124,133 A 6,6 0 0 1 130,139 L 130,148" />
    <path d="M 100,118 L 100,148" />
  </g>

  <!-- Node Elements -->
  <!-- Row 1: Top Node (Vibrant Blue) -->
  <rect x="85" y="32" width="30" height="30" rx="8" fill="#0052FF" />

  <!-- Row 2: Left, Middle, Right Nodes -->
  <rect x="37" y="92" width="26" height="26" rx="6" fill="#0052FF" />
  <rect x="87" y="92" width="26" height="26" rx="6" fill="#0E1726" />
  <rect x="137" y="92" width="26" height="26" rx="6" fill="#0052FF" />

  <!-- Row 3: Bottom Nodes (Left, Middle, Right) -->
  <rect x="59" y="148" width="22" height="20" rx="4" fill="#0E1726" />
  <rect x="89" y="148" width="22" height="20" rx="4" fill="#0E1726" />
  <rect x="119" y="148" width="22" height="20" rx="4" fill="#0E1726" />
</svg>