<svg xmlns="http://www.w3.org/2000/svg" viewBox="0 0 32 32" width="100%" height="100%">
  <!-- Connection Lines (Optimized) -->
  <path d="M 16,11 V 14 M 7,12.5 H 25 M 7,12.5 V 14 M 25,12.5 V 14 M 16,20 V 24 M 10.25,22 H 21.75 M 10.25,22 V 24 M 21.75,22 V 24" fill="none" stroke="#0E1726" stroke-width="1.5" stroke-linecap="round" stroke-linejoin="round" />
  
  <!-- Nodes (Optimized for 32x32 Space) -->
  <rect x="12" y="3" width="8" height="8" rx="2.2" fill="#0052FF" />
  <rect x="4" y="14" width="6" height="6" rx="1.5" fill="#0052FF" />
  <rect x="13" y="14" width="6" height="6" rx="1.5" fill="#0E1726" />
  <rect x="22" y="14" width="6" height="6" rx="1.5" fill="#0052FF" />
  <rect x="8" y="24" width="4.5" height="4.5" rx="1" fill="#0E1726" />
  <rect x="13.75" y="24" width="4.5" height="4.5" rx="1" fill="#0E1726" />
  <rect x="19.5" y="24" width="4.5" height="4.5" rx="1" fill="#0E1726" />
</svg>